<svg width="99" height="29" viewBox="0 0 99 29" fill="none" xmlns="http://www.w3.org/2000/svg">
<path d="M26.6867 14.4363C26.607 12.1493 27.1198 9.88052 28.1752 7.85005C28.5836 6.98725 29.4925 5.71611 28.1752 4.24079C27.7854 3.81813 27.2608 3.54425 26.6911 3.46614C26.1215 3.38803 25.5425 3.51055 25.0533 3.81268C25.3575 3.32463 25.4818 2.74573 25.4049 2.17581C25.3279 1.6059 25.0545 1.08071 24.6318 0.690801C23.1565 -0.626449 21.8853 0.269281 21.016 0.690801C18.9843 1.74226 16.716 2.25263 14.4297 2.17271C12.1435 2.25174 9.87547 1.74142 7.84347 0.690801C6.98067 0.282454 5.71611 -0.626449 4.2342 0.690801C3.81258 1.08141 3.53996 1.6065 3.46305 2.17608C3.38615 2.74565 3.50975 3.32425 3.81268 3.81268C3.32352 3.51055 2.74448 3.38803 2.17487 3.46614C1.60525 3.54425 1.08057 3.81813 0.690801 4.24079C-0.626449 5.71611 0.269281 6.98725 0.690801 7.85005C1.74114 9.88215 2.25144 12.1502 2.17271 14.4363C2.25203 16.7225 1.7417 18.9906 0.690801 21.0225C0.282454 21.8853 -0.626449 23.1565 0.690801 24.6318C1.08057 25.0545 1.60525 25.3283 2.17487 25.4065C2.74448 25.4846 3.32352 25.362 3.81268 25.0599C3.50899 25.547 3.3849 26.1248 3.46186 26.6935C3.53882 27.2623 3.812 27.7864 4.2342 28.1752C5.71611 29.4925 6.98067 28.6033 7.84347 28.1752C9.87454 27.1221 12.1433 26.6116 14.4297 26.6933C16.7163 26.6101 18.9854 27.1206 21.016 28.1752C21.8853 28.5836 23.1565 29.4925 24.6318 28.1752C25.054 27.7864 25.3272 27.2623 25.4041 26.6935C25.4811 26.1248 25.357 25.547 25.0533 25.0599C25.538 25.35 26.1072 25.4657 26.6667 25.3879C27.2261 25.31 27.7421 25.0432 28.1291 24.6318C29.4464 23.1565 28.5572 21.8853 28.1291 21.0225C27.0742 18.9919 26.5615 16.7232 26.6406 14.4363H26.6867ZM23.3936 23.4595L16.4319 17.5911C15.8832 17.0655 15.173 16.7405 14.4165 16.669C13.6604 16.7421 12.9507 17.0668 12.4011 17.5911L5.41314 23.4595L11.2815 16.4714C11.8067 15.9198 12.1315 15.2077 12.2036 14.4495C12.124 13.7068 11.7996 13.0116 11.2815 12.4736L5.3868 5.42631L12.3748 11.2947C12.9244 11.819 13.6341 12.1437 14.3902 12.2167C15.1467 12.1452 15.8569 11.8203 16.4056 11.2947L23.3936 5.4329L17.5911 12.4209C17.0655 12.9696 16.7405 13.6798 16.669 14.4363C16.7421 15.1924 17.0668 15.9021 17.5911 16.4517L23.4595 23.4397L23.3936 23.4595Z" fill="#CC2128"/>
<path d="M97.0806 1.66556H97.3308L97.4231 6.27593H97.1464C96.692 4.41202 94.8939 2.65349 91.311 2.46908C87.0629 2.24514 85.2253 4.77426 85.199 7.16507C85.199 10.3528 87.6557 11.0114 91.3308 11.9006C93.0695 12.3287 99.4845 13.1651 98.9708 20.3705C98.6086 25.4156 94.2617 27.8064 88.1035 27.6154C86.0271 27.4778 83.9714 27.1178 81.9717 26.5418C81.3131 26.3508 81.1419 26.5418 80.8652 27.0687H80.5754V22.129H80.8586C80.9547 22.9724 81.3358 23.7577 81.9388 24.3552C82.5974 24.9348 84.1583 26.3772 87.5569 26.4101C90.9554 26.443 93.6689 25.0401 94.0377 21.2992C94.1365 20.2849 94.0377 18.006 91.7852 16.9259C90.0399 16.0697 85.1397 15.5428 82.795 13.4747C81.9488 12.8226 81.2861 11.9622 80.8717 10.9776C80.4572 9.9929 80.3053 8.91758 80.4305 7.85663C81.0562 2.68642 85.3636 1.39552 89.2429 1.31648C91.3355 1.30653 93.4228 1.52741 95.4669 1.97511C95.8742 2.08759 96.3044 2.08759 96.7117 1.97511C96.871 1.91621 97.0087 1.81062 97.1069 1.67214L97.0806 1.66556ZM72.8629 13.5603C79.1528 15.1213 79.5348 19.6592 79.4492 20.9369C79.166 26.6077 74.3383 27.2663 72.3953 27.2663H57.5433V26.9765C58.6235 26.8316 59.4336 26.2388 59.4336 24.342L59.5258 4.75451C59.5258 2.62715 58.9857 1.97511 57.8068 1.84339V1.57335H69.0034C71.0649 1.57335 77.2626 1.15842 77.796 6.84235C78.2176 11.4066 73.1857 13.3166 72.8366 13.5208L72.8629 13.5603ZM74.5161 20.9764C74.628 15.4572 70.5643 13.995 66.3887 13.7316C66.303 13.7316 66.3294 13.5142 66.3887 13.5076C67.752 13.4549 73.1725 12.849 72.9749 7.65246C72.751 2.61398 68.9244 2.50201 67.5281 2.48225C66.3952 2.48225 66.145 2.48225 65.6642 2.48225C64.8541 2.52177 64.6499 2.57446 64.6499 3.4636C64.6499 3.57557 64.4721 12.5394 64.3733 18.8425C64.314 22.2739 64.3074 24.915 64.3074 24.915C64.3074 25.5736 64.2415 26.1796 65.7893 26.2323C67.4871 26.3712 69.1952 26.316 70.8805 26.0676C72.1977 25.7844 74.4568 24.8228 74.5358 20.9237L74.5161 20.9764ZM44.9241 1.57993C50.2655 1.57993 57.3062 5.22213 57.2865 14.3902C57.2865 22.3595 51.5103 27.2729 46.1886 27.2729H32.6934V26.9831C33.4574 26.858 34.3005 26.3772 34.4388 25.8766C34.8932 23.9534 34.7944 6.38131 34.5178 3.48336C34.4658 3.06229 34.2716 2.67157 33.9674 2.37578C33.6633 2.07999 33.2673 1.89683 32.8449 1.85656V1.57993C32.8449 1.57993 43.7254 1.57993 44.9241 1.57993ZM47.3676 25.6066C49.7584 24.7438 52.7288 20.6603 52.2414 14.2189C51.7672 7.98835 49.3896 3.09477 43.0668 2.64032C43.0668 2.64032 41.8681 2.5547 40.867 2.54811C39.8658 2.54153 39.5497 2.5086 39.4773 3.6546C39.3389 5.80172 39.2928 22.5571 39.4377 24.9809C39.4377 25.3102 39.4904 26.1071 40.867 26.2388C43.0557 26.515 45.2787 26.2898 47.3676 25.5802V25.6066Z" fill="black"/>
</svg>
