<svg width="15" height="15" viewBox="0 0 15 15" fill="none" xmlns="http://www.w3.org/2000/svg">
<path d="M12.5 1.66667C12.9602 1.66667 13.3333 2.03976 13.3333 2.5C13.3333 2.96024 12.9602 3.33333 12.5 3.33333H10.8333C10.3731 3.33333 10 2.96024 10 2.5C10 2.03976 10.3731 1.66667 10.8333 1.66667H12.5ZM4 1.66667C4.55229 1.66667 5 2.11438 5 2.66667V5.66667C5 6.21895 4.55228 6.66667 4 6.66667H2.66667C2.11438 6.66667 1.66667 6.21895 1.66667 5.66667V2.66667C1.66667 2.11438 2.11438 1.66667 2.66667 1.66667H4ZM12.3333 8.33333C12.8856 8.33333 13.3333 8.78105 13.3333 9.33333V12.3333C13.3333 12.8856 12.8856 13.3333 12.3333 13.3333H11C10.4477 13.3333 10 12.8856 10 12.3333V9.33333C10 8.78105 10.4477 8.33333 11 8.33333H12.3333ZM4.16667 11.6667C4.6269 11.6667 5 12.0398 5 12.5C5 12.9602 4.6269 13.3333 4.16667 13.3333H2.5C2.03976 13.3333 1.66667 12.9602 1.66667 12.5C1.66667 12.0398 2.03976 11.6667 2.5 11.6667H4.16667ZM15 1C15 0.447715 14.5523 0 14 0H9.33333C8.78105 0 8.33333 0.447715 8.33333 1V4C8.33333 4.55228 8.78105 5 9.33333 5H14C14.5523 5 15 4.55228 15 4V1ZM6.66667 1C6.66667 0.447715 6.21895 0 5.66667 0H0.999999C0.447714 0 0 0.447715 0 1V7.33333C0 7.88562 0.447715 8.33333 1 8.33333H5.66667C6.21895 8.33333 6.66667 7.88562 6.66667 7.33333V1ZM15 7.66667C15 7.11438 14.5523 6.66667 14 6.66667H9.33333C8.78105 6.66667 8.33333 7.11438 8.33333 7.66667V14C8.33333 14.5523 8.78105 15 9.33333 15H14C14.5523 15 15 14.5523 15 14V7.66667ZM6.66667 11C6.66667 10.4477 6.21895 10 5.66667 10H0.999999C0.447714 10 0 10.4477 0 11V14C0 14.5523 0.447715 15 1 15H5.66667C6.21895 15 6.66667 14.5523 6.66667 14V11Z" fill="#73B9FF"/>
</svg>
